<?xml version="1.0" standalone="no"?>
<!DOCTYPE svg PUBLIC "-//W3C//DTD SVG 20010904//EN"
 "http://www.w3.org/TR/2001/REC-SVG-20010904/DTD/svg10.dtd">
<svg version="1.0" xmlns="http://www.w3.org/2000/svg"
 width="600.000000pt" height="327.000000pt" viewBox="0 0 600.000000 327.000000"
 preserveAspectRatio="xMidYMid meet">
<g transform="translate(0.000000,327.000000) scale(0.100000,-0.100000)"
fill="#000000" stroke="none">
<path d="M3121 3060 c-175 -24 -326 -104 -452 -238 -37 -38 -74 -83 -84 -100
-23 -38 -54 -55 -147 -81 -42 -11 -100 -30 -129 -41 -29 -11 -55 -18 -57 -15
-7 7 67 91 111 128 23 18 84 61 134 95 99 67 149 112 172 155 13 24 13 29 0
42 -13 13 -23 12 -84 -8 -184 -63 -350 -170 -505 -326 -190 -191 -322 -429
-379 -685 l-19 -86 45 -47 c62 -64 83 -112 83 -198 0 -88 -24 -144 -86 -201
l-45 -42 20 -94 c27 -129 53 -204 115 -333 137 -282 378 -520 660 -654 122
-58 155 -67 173 -48 14 14 14 19 -5 49 -28 44 -74 87 -152 138 -108 72 -151
107 -237 192 -83 82 -107 116 -55 80 15 -11 92 -52 171 -92 168 -85 232 -141
307 -270 56 -96 84 -126 144 -154 40 -19 63 -21 220 -21 193 0 229 7 286 57
18 16 55 66 81 110 86 143 134 187 301 272 81 42 162 85 180 97 17 11 32 17
32 11 0 -21 -200 -200 -285 -256 -137 -89 -214 -171 -199 -210 9 -23 27 -20
123 21 172 74 291 153 424 282 195 188 326 412 390 661 42 163 42 155 -4 197
-96 89 -121 213 -66 325 16 32 45 71 65 88 l36 30 -11 67 c-40 233 -186 508
-373 706 -169 178 -317 280 -489 337 -56 18 -66 19 -78 7 -31 -31 35 -106 172
-198 82 -54 177 -145 210 -201 18 -31 18 -31 -1 -23 -10 4 -74 27 -142 50
-119 41 -125 44 -192 111 -81 81 -154 128 -258 164 l-76 27 35 11 c19 6 54 16
79 22 53 14 70 26 70 50 0 10 -6 22 -12 28 -19 15 -143 22 -217 12z m-1 -93
c-199 -100 -323 -241 -364 -414 -17 -75 -32 -99 -75 -119 -32 -15 -38 -15
-109 6 -60 18 -90 21 -144 17 -137 -12 -283 -110 -378 -255 l-50 -76 0 74 c0
106 12 140 69 193 99 93 206 149 380 198 58 17 116 37 128 45 12 7 47 48 79
89 67 90 151 161 248 210 78 39 199 74 261 74 38 1 37 0 -45 -42z m-550 -41
c0 -2 -48 -37 -107 -77 -133 -90 -210 -162 -279 -260 -46 -65 -124 -143 -124
-124 0 12 54 111 83 155 43 63 124 147 177 184 85 59 250 140 250 122z m1078
-33 c126 -62 283 -224 356 -370 14 -29 26 -55 26 -58 0 -3 -18 7 -40 21 -37
24 -51 43 -102 133 -11 19 -44 62 -75 97 -52 59 -84 85 -218 179 -65 45 -43
45 53 -2z m-464 -19 c81 -21 186 -77 248 -133 l51 -45 -34 -9 c-19 -5 -50 -21
-70 -37 l-37 -29 -26 39 c-39 59 -106 120 -177 162 -35 21 -67 39 -73 41 -5 2
-6 9 -2 15 10 16 46 15 120 -4z m-94 -85 c105 -55 225 -184 200 -214 -14 -17
3 -101 27 -133 37 -49 71 -67 134 -69 52 -1 68 -7 128 -47 78 -52 167 -144
220 -226 79 -124 141 -319 120 -379 -7 -20 -9 -55 -4 -94 13 -107 9 -181 -15
-258 -73 -242 -233 -439 -436 -535 -82 -39 -106 -65 -154 -164 -17 -36 -37
-76 -44 -90 -17 -30 -72 -70 -97 -70 -18 0 -19 11 -19 148 l0 148 58 40 c56
39 57 40 67 104 l11 64 69 40 c96 55 220 181 267 271 104 201 104 429 1 628
-47 92 -172 219 -263 270 -151 82 -320 108 -463 68 -277 -76 -472 -295 -506
-570 -33 -258 98 -526 318 -651 34 -19 68 -39 76 -45 8 -5 20 -37 26 -70 12
-67 25 -86 81 -117 l38 -22 0 -154 0 -154 -27 7 c-45 11 -73 44 -118 140 -50
109 -84 145 -178 189 -145 68 -273 201 -357 371 -62 124 -85 209 -82 300 3 88
4 196 2 255 0 25 9 77 21 115 57 185 176 346 330 449 48 32 66 38 117 39 99 3
137 43 177 181 27 93 60 150 134 229 50 53 51 53 141 6z m521 -180 c181 -54
344 -142 428 -234 43 -47 56 -99 49 -200 l-3 -50 -19 35 c-37 69 -107 149
-173 199 -127 96 -243 120 -377 81 -74 -22 -79 -22 -112 -7 -23 11 -40 30 -50
52 -14 34 -13 36 22 82 36 49 72 72 110 73 12 0 68 -14 125 -31z m-1596 -108
c-25 -49 -62 -192 -70 -267 -8 -87 8 -205 40 -291 13 -34 50 -101 82 -149 51
-78 57 -92 57 -138 0 -54 1 -51 -90 -196 -57 -90 -79 -177 -78 -305 1 -91 5
-122 27 -183 68 -193 224 -374 459 -533 109 -74 120 -90 29 -44 -358 180 -612
499 -706 889 l-24 99 41 46 c64 73 82 121 82 226 1 79 -2 96 -27 142 -15 29
-41 68 -58 88 -28 32 -31 40 -25 78 21 130 122 361 217 497 52 73 70 90 44 41z
m2151 -118 c67 -109 124 -245 155 -369 l23 -91 -37 -43 c-66 -77 -82 -122 -82
-230 0 -108 16 -149 85 -224 l38 -41 -28 -110 c-102 -393 -349 -703 -700 -880
-94 -47 -76 -23 41 56 341 229 515 526 469 800 -16 97 -40 156 -101 248 -85
130 -88 177 -15 283 96 140 129 242 129 398 -1 103 -18 194 -58 292 l-25 63
25 -30 c14 -16 50 -71 81 -122z m-1662 21 c12 -5 -2 -19 -52 -54 -142 -100
-269 -286 -318 -466 -16 -61 -19 -65 -32 -48 -25 33 -82 158 -82 180 0 74 150
274 249 332 86 50 187 74 235 56z m1273 -33 c96 -45 205 -158 258 -269 45 -94
44 -100 -23 -222 -40 -72 -34 -75 -72 45 -52 167 -175 334 -324 440 -54 38
-47 46 36 41 37 -3 82 -15 125 -35z m-555 -147 c137 -43 293 -170 346 -280 14
-31 14 -39 -1 -101 -34 -142 -31 -313 8 -424 14 -40 14 -43 -13 -93 -36 -68
-142 -172 -222 -219 -133 -77 -271 -102 -404 -72 -159 35 -303 132 -390 264
l-46 68 21 79 c29 109 30 288 1 394 l-20 75 40 63 c89 137 255 247 413 272 73
12 178 2 267 -26z m-709 -559 c2 -97 -17 -235 -33 -235 -15 0 -40 131 -40 212
0 75 19 182 37 211 13 21 34 -89 36 -188z m1122 109 c8 -32 15 -89 15 -127 0
-70 -25 -203 -40 -212 -30 -19 -47 270 -21 374 16 61 22 57 46 -35z m-1506
-394 c43 -171 150 -348 285 -469 58 -53 58 -53 25 -47 -19 4 -72 26 -119 48
-110 53 -210 151 -263 258 -43 84 -45 109 -16 182 20 53 59 122 64 116 1 -2
12 -41 24 -88z m1921 -38 c11 -29 20 -61 20 -71 0 -33 -78 -174 -125 -228 -54
-61 -144 -124 -220 -152 -108 -41 -108 -38 -6 66 67 69 110 124 144 183 47 84
107 248 107 293 0 13 3 27 7 31 9 9 48 -56 73 -122z m-2007 -257 c107 -160
272 -260 473 -285 137 -17 151 -29 228 -182 45 -91 56 -106 100 -133 49 -30
50 -30 200 -30 141 0 154 2 193 24 48 27 74 64 122 166 54 116 84 138 210 154
92 12 198 46 265 85 67 39 164 133 208 200 l38 59 0 -35 c0 -20 -9 -65 -20
-101 -16 -53 -30 -75 -77 -121 -75 -75 -139 -116 -305 -198 -162 -81 -233
-144 -312 -278 -78 -132 -107 -148 -281 -157 -120 -5 -232 11 -279 42 -14 10
-47 54 -74 99 -27 47 -78 112 -122 157 -68 68 -89 83 -220 147 -154 76 -294
175 -331 235 -26 42 -71 207 -56 207 2 0 20 -25 40 -55z m1002 -115 c39 0 95
7 125 15 30 8 55 13 57 11 2 -2 0 -21 -5 -42 -6 -32 -17 -46 -65 -78 l-57 -40
0 -168 0 -168 -55 0 -55 0 0 169 0 169 -52 33 c-28 19 -54 36 -58 39 -4 3 -11
24 -14 46 l-7 42 58 -14 c32 -8 90 -14 128 -14z"/>
<path d="M2956 2110 c-72 -19 -166 -71 -220 -123 -233 -229 -174 -608 119
-753 206 -102 461 -38 587 147 29 42 40 70 49 129 41 268 -75 491 -302 580
-62 25 -175 34 -233 20z m173 -31 c160 -37 294 -174 331 -339 18 -82 10 -255
-15 -305 -31 -64 -116 -142 -197 -180 -221 -105 -479 -11 -586 212 -89 188
-34 407 136 535 100 76 219 103 331 77z"/>
<path d="M2972 2039 c-100 -19 -218 -113 -266 -211 -99 -202 -14 -440 191
-536 52 -24 70 -27 163 -27 97 0 110 2 172 32 110 52 195 156 212 259 17 102
-53 291 -138 375 -54 53 -134 95 -207 109 -58 11 -67 11 -127 -1z m-42 -261
c41 -45 15 -108 -46 -108 -58 0 -83 63 -42 107 27 29 61 29 88 1z m350 2 c42
-42 14 -110 -46 -110 -60 0 -83 62 -39 105 29 30 58 32 85 5z m-350 -235 c87
-73 180 -71 266 5 58 50 91 10 37 -45 -49 -48 -101 -69 -173 -69 -72 0 -115
18 -167 67 -36 33 -40 46 -21 65 15 15 10 17 58 -23z"/>
</g>
</svg>
